<?xml version="1.0" standalone="no"?>
<!DOCTYPE svg PUBLIC "-//W3C//DTD SVG 20010904//EN"
 "http://www.w3.org/TR/2001/REC-SVG-20010904/DTD/svg10.dtd">
<svg version="1.0" xmlns="http://www.w3.org/2000/svg"
 width="640.000000pt" height="640.000000pt" viewBox="0 0 640.000000 640.000000"
 preserveAspectRatio="xMidYMid meet">
<metadata>
Created by potrace 1.11, written by Peter Selinger 2001-2013
</metadata>
<g transform="translate(0.000000,640.000000) scale(0.100000,-0.100000)"
fill="#000000" stroke="none">
<path d="M3030 5870 c8 -5 23 -10 33 -10 32 0 17 -19 -20 -25 -88 -15 -96 -17
-82 -26 21 -12 6 -20 -53 -26 -60 -6 -186 -29 -362 -67 -76 -16 -124 -22 -131
-16 -7 6 -32 1 -71 -15 -32 -14 -50 -25 -40 -25 31 0 9 -14 -79 -49 -102 -42
-245 -117 -341 -181 -75 -50 -104 -61 -64 -25 11 10 20 22 20 27 0 6 -35 -21
-77 -59 -43 -37 -95 -84 -117 -103 -100 -88 -184 -166 -221 -204 -72 -75 -130
-124 -116 -98 7 13 10 26 8 29 -3 3 -75 -100 -160 -229 -121 -182 -169 -265
-220 -378 -63 -143 -103 -248 -95 -255 2 -2 20 33 40 78 20 45 44 83 52 85 14
3 14 -1 5 -25 -6 -15 -19 -37 -29 -48 -23 -25 -69 -161 -115 -338 -19 -76 -40
-147 -45 -158 -6 -11 -8 -35 -4 -55 4 -22 1 -50 -9 -77 -21 -59 -29 -254 -17
-437 16 -246 49 -409 133 -662 53 -158 144 -358 163 -358 19 0 17 10 -5 34
-23 24 -41 83 -22 72 7 -5 11 1 11 16 0 18 4 15 21 -17 12 -22 39 -65 60 -95
22 -31 34 -57 28 -60 -11 -7 -1 -40 12 -40 14 0 59 -47 136 -145 39 -49 86
-103 105 -120 24 -22 27 -24 12 -5 -41 47 -79 121 -56 106 11 -6 9 25 -2 42
-14 23 0 23 27 1 23 -18 26 -26 21 -58 -6 -35 -4 -40 29 -60 19 -11 40 -35 47
-51 7 -17 15 -29 17 -26 8 7 -37 87 -52 93 -20 7 -19 30 1 30 8 0 36 -25 62
-56 89 -107 166 -186 216 -224 28 -21 53 -48 56 -60 4 -13 15 -23 28 -25 13
-2 22 -10 22 -21 0 -26 26 -44 55 -39 16 3 30 -1 41 -13 10 -11 13 -19 8 -19
-11 0 34 -31 49 -34 16 -2 65 -35 95 -63 13 -12 56 -32 96 -43 89 -27 101 -33
101 -54 0 -8 4 -15 9 -15 5 0 13 -5 18 -13 7 -10 11 -10 15 0 6 16 26 16 20 0
-4 -14 21 -37 41 -38 7 0 10 5 6 12 -4 7 -3 8 4 4 7 -4 19 -3 28 2 12 6 -15
24 -111 72 -135 68 -342 197 -331 207 3 3 0 13 -7 21 -8 10 3 7 31 -7 23 -12
42 -19 42 -16 0 11 -81 45 -92 39 -6 -4 -8 -3 -4 4 3 6 1 14 -5 18 -6 3 -15 1
-19 -6 -9 -15 -57 19 -143 100 -27 25 -57 48 -67 52 -23 9 -78 82 -87 115 -3
14 -11 22 -18 19 -8 -3 -18 7 -24 26 -11 31 -11 31 9 13 11 -10 22 -16 25 -13
3 3 -20 27 -52 54 -87 75 -93 82 -114 130 -10 25 -19 48 -19 50 0 14 134 -125
144 -149 19 -43 275 -235 394 -296 23 -12 42 -27 42 -34 0 -24 310 -210 325
-195 3 2 -23 22 -57 44 -34 21 -90 57 -125 79 -34 22 -95 60 -134 85 -40 25
-80 59 -90 75 -23 36 -24 49 -4 41 10 -4 15 1 15 15 0 19 1 19 33 3 l32 -17
-19 22 c-31 35 -13 33 30 -2 74 -63 132 -99 145 -92 7 5 10 4 6 -1 -10 -17 20
-44 79 -70 32 -14 86 -39 119 -56 70 -35 105 -49 105 -43 0 3 -28 19 -62 36
-35 17 -94 52 -133 77 -38 25 -75 45 -82 45 -7 0 -10 4 -8 8 8 11 -23 31 -36
23 -7 -4 -9 -3 -6 3 6 9 -37 63 -51 63 -8 0 -74 61 -111 103 -34 38 -21 34 31
-10 43 -36 232 -163 243 -163 3 0 35 -20 72 -45 36 -25 69 -45 74 -45 5 0 6
-6 3 -13 -3 -8 10 -20 33 -31 37 -18 38 -18 20 1 -9 11 -17 24 -17 29 0 5 4 5
8 -1 6 -9 57 -30 117 -49 21 -7 2 3 -140 72 -118 57 -236 136 -257 173 -11 18
-28 32 -45 35 -18 3 -35 17 -46 35 -9 17 -21 28 -26 24 -9 -5 -160 179 -170
207 -2 5 55 -37 127 -95 71 -58 140 -110 153 -117 40 -21 -38 56 -93 92 -26
17 -45 35 -42 40 7 11 38 -8 112 -69 29 -23 60 -43 70 -42 14 0 13 3 -5 16
-27 18 -31 38 -6 28 10 -4 32 -11 48 -16 30 -9 29 -8 -10 26 -47 40 -34 46 20
9 22 -14 35 -19 32 -11 -3 8 -2 20 3 27 6 10 14 8 35 -9 15 -11 34 -21 42 -21
8 0 27 -8 41 -19 54 -37 113 -62 135 -56 16 5 18 4 8 -3 -16 -12 13 -26 137
-68 69 -23 77 -24 115 -11 l42 14 -42 12 c-49 14 -53 25 -18 53 23 18 25 25
25 109 0 72 3 89 15 89 13 0 15 20 15 120 0 104 -2 120 -16 120 -14 0 -15 2
-3 17 13 15 14 15 17 0 2 -10 10 -17 18 -17 11 0 14 17 14 80 0 47 4 80 10 80
6 0 10 34 10 82 0 58 4 86 15 98 8 9 18 44 21 78 7 60 6 62 -16 62 -21 0 -20
3 16 47 l38 46 -34 -6 c-25 -5 -31 -4 -20 3 8 5 33 10 55 11 l40 2 -45 7 -45
7 53 1 c50 2 53 4 58 32 4 16 10 28 14 25 5 -3 13 9 19 27 15 42 12 50 -4 13
-17 -36 -19 -20 -4 23 6 18 15 29 20 26 5 -3 8 3 7 13 -4 54 -6 53 120 53 136
0 125 8 162 -115 12 -38 23 -76 25 -82 3 -10 36 -13 121 -13 134 0 126 -10 81
110 -13 36 -52 144 -87 240 -34 96 -80 223 -102 283 -22 59 -44 123 -49 142
l-10 35 -135 0 c-130 0 -135 -1 -144 -22 -10 -26 -13 -5 -4 30 5 17 9 20 20
11 7 -6 23 -9 36 -6 20 4 20 4 -4 6 l-28 1 0 96 c0 86 2 98 22 113 23 19 53
114 37 119 -5 2 -9 21 -9 43 0 28 4 39 15 39 13 0 15 20 15 120 0 100 3 120
15 120 12 0 15 16 15 80 0 47 4 80 10 80 6 0 10 35 10 84 0 62 4 87 15 96 12
10 15 36 15 116 0 63 4 104 10 104 6 0 10 18 10 40 0 22 5 40 10 40 6 0 10
-18 10 -40 0 -22 4 -40 10 -40 6 0 7 45 3 123 -5 106 -4 124 11 136 10 9 16
29 16 59 0 28 6 52 17 64 15 17 15 18 0 18 -13 0 -17 9 -17 40 0 30 4 40 16
40 14 0 15 10 9 80 -5 56 -4 80 4 80 6 0 11 -17 11 -40 0 -22 4 -40 10 -40 6
0 8 43 3 120 -5 108 -4 120 10 120 13 0 17 10 17 46 0 42 2 45 23 39 18 -5 17
-3 -5 10 -17 10 -48 14 -85 13 -32 -1 -80 2 -108 6 -27 4 -65 9 -82 12 -55 8
-37 24 30 25 l62 1 -75 24 c-81 26 -117 31 -90 14z m180 -90 c18 -12 2 -12
-25 0 -13 6 -15 9 -5 9 8 0 22 -4 30 -9z m125 -10 c-16 -4 -41 -8 -55 -8 -22
0 -22 1 5 8 17 4 41 8 55 8 22 0 22 -1 -5 -8z m-2295 -1282 c-27 -51 -61 -106
-75 -123 -24 -28 -23 -25 6 30 37 68 109 185 115 185 2 0 -18 -42 -46 -92z
m1958 -839 c-3 -8 -7 -3 -11 10 -4 17 -3 21 5 13 5 -5 8 -16 6 -23z m-8 -31
c0 -7 -4 -19 -9 -27 -6 -9 -8 -5 -8 13 0 14 3 26 8 26 5 0 9 -6 9 -12z m10
-55 c-11 -17 -11 -17 -6 0 3 10 6 24 7 30 0 9 2 9 5 0 3 -7 0 -20 -6 -30z
m-11 -43 c0 -10 -3 -8 -9 5 -12 27 -12 43 0 25 5 -8 9 -22 9 -30z m-59 -84 c0
-3 -4 -8 -10 -11 -5 -3 -10 -1 -10 4 0 6 5 11 10 11 6 0 10 -2 10 -4z m11 -27
c-5 -13 -10 -19 -10 -12 -1 15 10 45 15 40 3 -2 0 -15 -5 -28z m233 -24 c-4
-8 -2 -15 4 -15 5 0 13 -17 17 -37 4 -21 10 -42 15 -48 4 -5 10 -23 14 -38 l7
-28 -62 3 c-42 2 -64 7 -67 17 -3 8 -1 11 4 8 5 -3 10 9 11 25 1 17 12 62 24
101 19 57 24 66 30 48 5 -11 6 -28 3 -36z m-247 -27 c-3 -8 -6 -5 -6 6 -1 11
2 17 5 13 3 -3 4 -12 1 -19z m-177 -548 c0 -5 -2 -10 -4 -10 -3 0 -8 5 -11 10
-3 6 -1 10 4 10 6 0 11 -4 11 -10z m-1550 -443 c0 -5 -4 -5 -10 -2 -5 3 -10
14 -10 23 0 15 2 15 10 2 5 -8 10 -19 10 -23z m45 -66 c11 -14 28 -39 38 -55
14 -23 5 -18 -32 21 -28 28 -51 57 -51 63 0 15 20 2 45 -29z m-33 -193 c41
-79 44 -87 25 -68 -22 23 -78 130 -67 130 5 0 24 -28 42 -62z m143 -17 c-8 -7
-36 22 -51 53 -14 29 -13 28 20 -9 19 -22 33 -41 31 -44z m-83 -137 c27 -38
35 -64 21 -64 -8 0 -73 95 -73 106 0 15 28 -7 52 -42z m838 -66 c0 -6 -6 -5
-15 2 -8 7 -15 14 -15 16 0 2 7 1 15 -2 8 -4 15 -11 15 -16z m-296 -47 c58
-47 96 -85 96 -97 0 -8 -112 81 -145 116 -43 45 -20 36 49 -19z m836 -91 c8
-5 11 -10 5 -10 -5 0 -17 5 -25 10 -8 5 -10 10 -5 10 6 0 17 -5 25 -10z m87
-6 c-3 -3 -12 -4 -19 -1 -8 3 -5 6 6 6 11 1 17 -2 13 -5z m-40 -10 c-3 -3 -12
-4 -19 -1 -8 3 -5 6 6 6 11 1 17 -2 13 -5z"/>
<path d="M3225 5870 c-4 -6 5 -8 22 -6 15 2 22 1 15 -1 -7 -3 -10 -9 -6 -14 3
-5 10 -7 15 -4 5 4 9 2 9 -3 0 -10 98 -7 108 4 4 4 -3 4 -15 1 -13 -3 -23 -3
-23 -1 0 3 10 9 23 14 16 6 8 7 -28 4 -37 -4 -46 -3 -35 5 12 8 4 11 -32 11
-26 0 -50 -4 -53 -10z"/>
<path d="M2908 5813 c7 -3 16 -2 19 1 4 3 -2 6 -13 5 -11 0 -14 -3 -6 -6z"/>
<path d="M1353 5097 c-13 -5 -23 -16 -23 -22 0 -7 -10 -25 -22 -41 -11 -16 1
-8 27 18 51 49 56 63 18 45z"/>
<path d="M940 4555 c-13 -14 -20 -25 -17 -25 4 0 1 -16 -7 -35 -22 -51 -12
-43 24 21 35 63 35 76 0 39z"/>
<path d="M782 4088 c-66 -161 -140 -479 -129 -559 2 -19 -1 -66 -9 -105 -18
-94 -18 -408 1 -559 15 -120 45 -268 64 -315 l10 -25 1 25 c1 14 17 -29 35
-95 40 -140 86 -265 128 -350 46 -93 99 -186 103 -182 2 2 -12 39 -32 83 -82
179 -162 398 -189 514 -36 160 -54 222 -69 239 -12 14 -16 34 -15 72 2 30 -3
99 -10 153 -18 127 -9 529 14 666 21 132 47 240 56 235 9 -6 21 43 14 55 -4 6
-2 10 3 10 9 0 41 93 47 140 2 16 6 39 10 50 15 46 -5 15 -33 -52z m-65 -1500
c-3 -8 -6 -5 -6 6 -1 11 2 17 5 13 3 -3 4 -12 1 -19z"/>
<path d="M607 3731 c-9 -30 -17 -73 -16 -95 1 -37 3 -34 20 34 23 92 20 138
-4 61z"/>
<path d="M3844 3651 c-53 -14 -120 -50 -166 -90 -127 -112 -164 -348 -84 -535
56 -133 187 -204 357 -194 95 6 136 27 166 88 l22 45 2 -35 c0 -19 4 -46 8
-60 7 -24 10 -25 81 -23 41 1 78 2 83 3 4 0 7 95 7 210 l0 210 -180 0 -180 0
0 -80 0 -80 80 0 80 0 -19 -39 c-27 -53 -81 -85 -141 -84 -81 1 -142 48 -165
127 -19 63 -21 199 -4 256 18 58 73 115 127 129 81 22 171 -26 187 -99 l7 -30
105 0 106 0 -7 41 c-8 53 -46 127 -83 161 -15 15 -55 39 -88 54 -51 24 -75 28
-165 30 -58 2 -119 0 -136 -5z"/>
<path d="M4640 3645 c-162 -46 -261 -175 -277 -361 -14 -179 63 -336 202 -408
120 -62 290 -60 416 4 141 73 218 246 191 432 -23 158 -104 271 -230 319 -75
28 -224 35 -302 14z m224 -163 c71 -41 100 -122 94 -262 -3 -82 -7 -102 -31
-142 -48 -82 -128 -113 -217 -83 -88 29 -130 112 -130 256 0 89 26 172 64 208
55 52 153 62 220 23z"/>
<path d="M574 3013 c4 -43 11 -94 16 -113 9 -32 9 -31 5 14 -3 27 -5 77 -5
112 0 41 -4 64 -11 64 -9 0 -10 -22 -5 -77z"/>
<path d="M2996 2851 c-3 -5 1 -11 9 -14 9 -4 12 -1 8 9 -6 16 -10 17 -17 5z"/>
<path d="M2966 2814 c-5 -14 -4 -15 9 -4 17 14 19 20 6 20 -5 0 -12 -7 -15
-16z"/>
<path d="M4071 2702 c-22 -19 -25 -34 -23 -134 2 -87 22 -90 22 -4 0 57 2 64
23 71 l22 8 -22 4 c-26 5 -33 43 -9 43 18 0 30 17 17 24 -5 3 -18 -2 -30 -12z"/>
<path d="M3680 2680 c-39 -39 -20 -76 49 -95 31 -9 36 -15 36 -40 0 -26 -4
-30 -32 -33 -23 -2 -35 3 -46 19 -9 11 -21 19 -27 17 -20 -6 29 -58 55 -58
100 0 111 88 16 120 -36 12 -42 17 -39 39 4 35 51 42 70 12 15 -24 28 -27 28
-8 0 22 -34 47 -63 47 -15 0 -36 -9 -47 -20z"/>
<path d="M4160 2661 c0 -11 -6 -22 -12 -24 -10 -4 -10 -6 0 -6 8 -1 12 -19 12
-55 0 -68 7 -86 33 -86 19 0 19 1 4 18 -24 26 -23 107 1 121 16 10 16 10 0 11
-11 0 -18 8 -18 20 0 11 -4 20 -10 20 -5 0 -10 -9 -10 -19z"/>
<path d="M3864 2629 c-28 -31 -25 -96 5 -120 54 -44 126 -10 126 59 0 54 -26
82 -75 82 -25 0 -43 -7 -56 -21z m88 -6 c21 -19 25 -82 6 -101 -19 -19 -66
-15 -78 7 -18 34 -12 78 12 95 28 20 37 20 60 -1z"/>
<path d="M4252 2639 c3 -8 13 -42 23 -77 24 -81 44 -80 66 3 l17 60 17 -62
c10 -35 24 -63 31 -63 7 0 24 34 37 75 17 51 22 75 14 75 -7 0 -21 -30 -31
-66 l-19 -67 -17 64 c-19 77 -39 84 -57 19 -22 -77 -25 -78 -42 -16 -10 33
-23 62 -31 64 -8 3 -11 -1 -8 -9z"/>
<path d="M4534 2642 c-13 -9 -26 -42 -16 -42 4 0 15 9 25 20 21 25 43 26 57 1
12 -23 0 -33 -40 -39 -33 -5 -50 -20 -50 -47 0 -32 24 -49 57 -41 16 4 35 7
43 7 12 1 15 14 14 64 -1 34 -4 68 -8 74 -8 12 -65 15 -82 3z m71 -94 c-7 -32
-33 -50 -56 -37 -37 19 -15 59 32 59 23 0 27 -4 24 -22z"/>
<path d="M4693 2573 c0 -40 4 -73 9 -73 4 0 8 15 8 34 0 59 11 93 34 104 18 8
16 10 -15 9 l-36 -1 0 -73z"/>
<path d="M4820 2630 c-23 -23 -27 -85 -6 -112 21 -28 68 -33 96 -10 14 11 21
24 17 29 -5 4 -13 0 -18 -10 -14 -24 -65 -23 -79 2 -18 35 -12 41 45 41 52 0
55 2 55 24 0 53 -70 76 -110 36z m80 -10 c31 -31 24 -40 -30 -40 -54 0 -62 10
-33 42 21 23 38 23 63 -2z"/>
<path d="M2883 2520 c0 -25 2 -35 4 -22 2 12 2 32 0 45 -2 12 -4 2 -4 -23z"/>
<path d="M730 2318 c0 -16 37 -78 46 -78 3 0 -1 11 -9 24 -9 13 -13 33 -10 45
4 15 1 21 -11 21 -9 0 -16 -6 -16 -12z"/>
<path d="M1027 2103 c10 -18 20 -28 22 -22 2 6 -6 21 -19 33 l-21 21 18 -32z"/>
<path d="M1274 1845 c8 -16 27 -43 41 -60 l26 -30 -18 33 c-9 18 -28 45 -41
60 l-23 27 15 -30z"/>
<path d="M2274 1856 c11 -9 24 -16 30 -16 12 0 7 5 -24 19 -24 11 -24 11 -6
-3z"/>
<path d="M2259 1797 c16 -20 8 -22 -22 -5 -21 11 -21 10 -7 -8 27 -34 44 -43
58 -31 10 8 22 6 45 -7 l32 -17 -30 25 c-16 14 -36 24 -43 21 -7 -3 -11 -1 -8
3 3 4 -5 14 -17 22 -20 12 -21 12 -8 -3z"/>
<path d="M1641 1741 c-12 -8 -11 -13 10 -30 13 -11 42 -30 64 -42 l40 -22 -45
50 c-50 57 -49 56 -69 44z"/>
<path d="M1060 1718 c0 -8 14 -27 30 -43 17 -16 30 -25 30 -20 0 4 -8 14 -17
21 -10 7 -18 20 -18 30 0 9 -6 19 -12 21 -7 3 -13 -2 -13 -9z"/>
<path d="M2760 1699 c0 -5 5 -7 10 -4 6 3 10 8 10 11 0 2 -4 4 -10 4 -5 0 -10
-5 -10 -11z"/>
<path d="M2845 1640 c3 -5 8 -10 11 -10 2 0 4 5 4 10 0 6 -5 10 -11 10 -5 0
-7 -4 -4 -10z"/>
<path d="M1735 1620 c3 -5 16 -15 28 -21 22 -12 22 -12 3 10 -19 21 -43 30
-31 11z"/>
<path d="M2878 1613 c6 -2 18 -2 25 0 6 3 1 5 -13 5 -14 0 -19 -2 -12 -5z"/>
<path d="M2918 1573 c7 -3 16 -2 19 1 4 3 -2 6 -13 5 -11 0 -14 -3 -6 -6z"/>
<path d="M1650 1536 c0 -2 8 -10 18 -17 15 -13 16 -12 3 4 -13 16 -21 21 -21
13z"/>
<path d="M2460 1462 c8 -5 26 -13 40 -16 17 -5 20 -4 10 2 -8 5 -26 13 -40 16
-17 5 -20 4 -10 -2z"/>
<path d="M1765 1440 c10 -11 20 -20 23 -20 3 0 -3 9 -13 20 -10 11 -20 20 -23
20 -3 0 3 -9 13 -20z"/>
<path d="M2490 1416 c14 -9 32 -15 40 -15 13 0 13 1 0 8 -8 5 -26 12 -40 15
l-25 7 25 -15z"/>
<path d="M2840 1426 c0 -2 7 -7 16 -10 8 -3 12 -2 9 4 -6 10 -25 14 -25 6z"/>
<path d="M1800 1416 c0 -2 8 -10 18 -17 15 -13 16 -12 3 4 -13 16 -21 21 -21
13z"/>
<path d="M1840 1394 c0 -8 5 -12 10 -9 6 4 8 11 5 16 -9 14 -15 11 -15 -7z"/>
<path d="M1880 1355 c7 -8 17 -15 22 -15 5 0 3 7 -6 15 -8 8 -18 15 -22 15 -3
0 -1 -7 6 -15z"/>
<path d="M2210 1300 c8 -5 20 -10 25 -10 6 0 3 5 -5 10 -8 5 -19 10 -25 10 -5
0 -3 -5 5 -10z"/>
<path d="M2450 1306 c0 -9 65 -36 85 -36 25 0 8 17 -22 22 -16 3 -36 9 -45 13
-10 4 -18 4 -18 1z"/>
<path d="M1735 1263 c26 -25 182 -130 165 -111 -6 8 -153 112 -171 123 -8 4
-5 -1 6 -12z"/>
<path d="M2566 1271 c9 -9 83 -27 74 -18 -3 3 -23 10 -44 16 -22 5 -35 6 -30
2z"/>
<path d="M2420 1186 c0 -2 7 -7 16 -10 8 -3 12 -2 9 4 -6 10 -25 14 -25 6z"/>
<path d="M2702 1153 c2 -9 9 -18 16 -19 7 -1 8 0 2 3 -5 2 -10 9 -10 14 0 6 5
7 10 4 6 -3 10 -1 10 4 0 6 -7 11 -16 11 -9 0 -14 -7 -12 -17z"/>
<path d="M2419 1151 c7 -5 11 -13 7 -19 -6 -10 23 -26 32 -17 3 3 0 5 -7 5 -7
0 -11 6 -8 14 3 8 -1 17 -9 20 -23 9 -31 7 -15 -3z"/>
<path d="M1730 1026 c0 -7 136 -99 180 -121 50 -25 37 -14 -65 52 -113 74
-115 75 -115 69z"/>
<path d="M2289 957 c12 -15 90 -41 98 -34 2 3 -13 10 -34 17 -21 7 -42 16 -47
21 -16 14 -30 10 -17 -4z"/>
<path d="M2577 909 c7 -7 15 -10 18 -7 3 3 -2 9 -12 12 -14 6 -15 5 -6 -5z"/>
<path d="M2428 903 c7 -3 16 -2 19 1 4 3 -2 6 -13 5 -11 0 -14 -3 -6 -6z"/>
<path d="M2628 903 c6 -2 9 -10 6 -15 -4 -7 -2 -8 5 -4 13 9 5 26 -12 25 -9 0
-8 -2 1 -6z"/>
<path d="M2410 707 c8 -8 26 -18 40 -22 32 -9 15 7 -25 24 -26 11 -28 11 -15
-2z"/>
</g>
</svg>
